
<svg width="454px" height="395px" viewBox="0 0 454 395" version="1.1" xmlns="http://www.w3.org/2000/svg" xmlns:xlink="http://www.w3.org/1999/xlink">
    <g id="Page-1" stroke="none" stroke-width="1" fill="none" fill-rule="evenodd">
        <g id="Group-3-Copy-2" transform="translate(1.000000, 1.000000)">
            <polygon id="Triangle-2" stroke="#BAB4AF" fill="#000000" points="226 62 360 292 92 292"></polygon>
            <polygon id="Triangle-2-Copy" stroke="#BAB4AF" fill="#000000" transform="translate(226.000000, 197.000000) scale(1, -1) translate(-226.000000, -197.000000) " points="226 0 452 394 0 394"></polygon>
            <path d="M11.04,45.2 C12.3200064,45.2 13.4399952,45.6799952 14.4,46.64 C15.3600048,47.6000048 15.84,48.7199936 15.84,50 L15.84,170 C15.84,171.280006 15.3600048,172.399995 14.4,173.36 C13.4399952,174.320005 12.3200064,174.8 11.04,174.8 C9.7599936,174.8 8.6400048,174.320005 7.68,173.36 C6.7199952,172.399995 6.24,171.280006 6.24,170 L6.24,50 C6.24,48.7199936 6.7199952,47.6000048 7.68,46.64 C8.6400048,45.6799952 9.7599936,45.2 11.04,45.2 Z M28.92,50 C28.92,48.799994 29.3799954,47.700005 30.3,46.7 C31.2200046,45.699995 32.3599932,45.2 33.72,45.2 C35.8000104,45.2 37.2799956,46.1599904 38.16,48.08 L81.96,147.32 L81.96,50 C81.96,48.7199936 82.4399952,47.6000048 83.4,46.64 C84.3600048,45.6799952 85.4799936,45.2 86.76,45.2 C88.0400064,45.2 89.1599952,45.6799952 90.12,46.64 C91.0800048,47.6000048 91.56,48.7199936 91.56,50 L91.56,170 C91.56,171.280006 91.0800048,172.399995 90.12,173.36 C89.1599952,174.320005 88.0400064,174.8 86.76,174.8 C84.75999,174.8 83.3200044,173.84001 82.44,171.92 L38.52,72.68 L38.52,170 C38.52,171.280006 38.0400048,172.399995 37.08,173.36 C36.1199952,174.320005 35.0000064,174.8 33.72,174.8 C32.4399936,174.8 31.3200048,174.320005 30.36,173.36 C29.3999952,172.399995 28.92,171.280006 28.92,170 L28.92,50 Z M153,45.2 C154.360007,45.2 155.499995,45.6799952 156.42,46.64 C157.340005,47.6000048 157.8,48.7199936 157.8,50 C157.8,50.4800024 157.76,50.8399988 157.68,51.08 L131.16,171.08 C130.919999,172.120005 130.360004,172.999996 129.48,173.72 C128.599996,174.440004 127.600006,174.8 126.48,174.8 C125.279994,174.8 124.240004,174.420004 123.36,173.66 C122.479996,172.899996 121.960001,172.040005 121.8,171.08 L95.28,51.08 C95.1999996,50.8399988 95.16,50.4800024 95.16,50 C95.16,48.7199936 95.6199954,47.6000048 96.54,46.64 C97.4600046,45.6799952 98.5999932,45.2 99.96,45.2 C101.080006,45.2 102.079996,45.5599964 102.96,46.28 C103.840004,47.0000036 104.399999,47.8799948 104.64,48.92 L126.48,147.8 L148.32,48.92 C148.560001,47.8799948 149.119996,47.0000036 150,46.28 C150.880004,45.5599964 151.879994,45.2 153,45.2 Z M224.04,50 C224.04,51.2800064 223.560005,52.3999952 222.6,53.36 C221.639995,54.3200048 220.520006,54.8 219.24,54.8 L171,54.8 L171,105.2 L219.24,105.2 C220.520006,105.2 221.639995,105.679995 222.6,106.64 C223.560005,107.600005 224.04,108.719994 224.04,110 C224.04,111.280006 223.560005,112.399995 222.6,113.36 C221.639995,114.320005 220.520006,114.8 219.24,114.8 L171,114.8 L171,165.2 L219.24,165.2 C220.520006,165.2 221.639995,165.679995 222.6,166.64 C223.560005,167.600005 224.04,168.719994 224.04,170 C224.04,171.280006 223.560005,172.399995 222.6,173.36 C221.639995,174.320005 220.520006,174.8 219.24,174.8 L166.2,174.8 C164.919994,174.8 163.800005,174.340005 162.84,173.42 C161.879995,172.499995 161.4,171.360007 161.4,170 L161.4,50 C161.4,48.7199936 161.859995,47.6000048 162.78,46.64 C163.700005,45.6799952 164.839993,45.2 166.2,45.2 L219.24,45.2 C220.520006,45.2 221.639995,45.6799952 222.6,46.64 C223.560005,47.6000048 224.04,48.7199936 224.04,50 Z M295.08,170 C295.08,171.280006 294.640004,172.399995 293.76,173.36 C292.879996,174.320005 291.760007,174.8 290.4,174.8 C288.079988,174.8 286.520004,173.720011 285.72,171.56 L266.88,114.8 L242.04,114.8 L242.04,170 C242.04,171.280006 241.560005,172.399995 240.6,173.36 C239.639995,174.320005 238.520006,174.8 237.24,174.8 C235.959994,174.8 234.840005,174.320005 233.88,173.36 C232.919995,172.399995 232.44,171.280006 232.44,170 L232.44,50 C232.44,48.7199936 232.899995,47.6000048 233.82,46.64 C234.740005,45.6799952 235.879993,45.2 237.24,45.2 L270.36,45.2 C271.640006,45.2 272.759995,45.6799952 273.72,46.64 L293.76,66.56 C294.640004,67.4400044 295.08,68.5999928 295.08,70.04 L295.08,89.96 C295.08,91.4000072 294.640004,92.5599956 293.76,93.44 L275.76,111.32 L294.84,168.44 C295.000001,169.080003 295.08,169.599998 295.08,170 Z M268.32,105.2 L285.48,88.04 L285.48,71.96 L268.32,54.8 L242.04,54.8 L242.04,105.2 L268.32,105.2 Z M361.32,70.04 C361.32,71.4000068 360.840005,72.5399954 359.88,73.46 C358.919995,74.3800046 357.800006,74.84 356.52,74.84 C355.239994,74.84 354.120005,74.3600048 353.16,73.4 L334.56,54.8 L325.44,54.8 L308.28,71.96 L308.28,87.56 L359.4,126.2 C360.680006,127.240005 361.32,128.519992 361.32,130.04 L361.32,149.96 C361.32,151.320007 360.840005,152.479995 359.88,153.44 L339.96,173.36 C338.999995,174.320005 337.880006,174.8 336.6,174.8 L323.52,174.8 C322.239994,174.8 321.120005,174.320005 320.16,173.36 L300.12,153.44 C299.159995,152.479995 298.68,151.320007 298.68,149.96 C298.68,148.599993 299.159995,147.460005 300.12,146.54 C301.080005,145.619995 302.199994,145.16 303.48,145.16 C304.760006,145.16 305.879995,145.639995 306.84,146.6 L325.44,165.2 L334.56,165.2 L351.72,148.04 L351.72,132.44 L300.6,93.8 C299.319994,92.8399952 298.68,91.560008 298.68,89.96 L298.68,70.04 C298.68,68.6799932 299.159995,67.5200048 300.12,66.56 L320.16,46.64 C321.120005,45.6799952 322.239994,45.2 323.52,45.2 L336.6,45.2 C337.880006,45.2 338.999995,45.6799952 339.96,46.64 L359.88,66.56 C360.840005,67.5200048 361.32,68.6799932 361.32,70.04 Z M374.28,45.2 C375.560006,45.2 376.679995,45.6799952 377.64,46.64 C378.600005,47.6000048 379.08,48.7199936 379.08,50 L379.08,170 C379.08,171.280006 378.600005,172.399995 377.64,173.36 C376.679995,174.320005 375.560006,174.8 374.28,174.8 C372.999994,174.8 371.880005,174.320005 370.92,173.36 C369.959995,172.399995 369.48,171.280006 369.48,170 L369.48,50 C369.48,48.7199936 369.959995,47.6000048 370.92,46.64 C371.880005,45.6799952 372.999994,45.2 374.28,45.2 Z M446.88,170 C446.88,171.280006 446.420005,172.399995 445.5,173.36 C444.579995,174.320005 443.440007,174.8 442.08,174.8 C440.959994,174.8 439.960004,174.440004 439.08,173.72 C438.199996,172.999996 437.640001,172.120005 437.4,171.08 L424.92,114.8 L405.96,114.8 L393.48,171.08 C393.239999,172.120005 392.680004,172.999996 391.8,173.72 C390.919996,174.440004 389.920006,174.8 388.8,174.8 C387.439993,174.8 386.300005,174.320005 385.38,173.36 C384.459995,172.399995 384,171.280006 384,170 C384,169.519998 384.04,169.160001 384.12,168.92 L410.76,48.92 C411.400003,46.4399876 412.959988,45.2 415.44,45.2 C416.560006,45.2 417.559996,45.5599964 418.44,46.28 C419.320004,47.0000036 419.879999,47.8799948 420.12,48.92 L446.76,168.92 C446.84,169.160001 446.88,169.519998 446.88,170 Z M422.76,105.2 L415.44,72.2 L408.12,105.2 L422.76,105.2 Z" id="INVERSIA" fill="#FCF8E7"></path>
            <path d="M142.824,235.2 C143.57067,235.2 144.223997,235.479997 144.784,236.04 C145.344003,236.600003 145.624,237.25333 145.624,238 L145.624,241.64 L149.964,236.25 C150.57067,235.549996 151.293996,235.2 152.134,235.2 C153.067338,235.2 153.813997,235.549996 154.374,236.25 L161.444,245.21 L168.584,236.25 C169.19067,235.549996 169.913996,235.2 170.754,235.2 C171.687338,235.2 172.433997,235.549996 172.994,236.25 L182.304,247.94 C182.724002,248.453336 182.934,249.036663 182.934,249.69 L182.934,273 C182.934,273.74667 182.665669,274.399997 182.129,274.96 C181.592331,275.520003 180.927337,275.8 180.134,275.8 C179.340663,275.8 178.675669,275.520003 178.139,274.96 C177.602331,274.399997 177.334,273.74667 177.334,273 L177.334,250.67 L170.824,242.48 L164.244,250.67 L164.244,273 C164.244,273.74667 163.964003,274.399997 163.404,274.96 C162.843997,275.520003 162.19067,275.8 161.444,275.8 C160.69733,275.8 160.044003,275.520003 159.484,274.96 C158.923997,274.399997 158.644,273.74667 158.644,273 L158.644,250.67 L152.134,242.48 L145.624,250.67 L145.624,273 C145.624,273.74667 145.344003,274.399997 144.784,274.96 C144.223997,275.520003 143.57067,275.8 142.824,275.8 C142.07733,275.8 141.424003,275.520003 140.864,274.96 C140.303997,274.399997 140.024,273.74667 140.024,273 L140.024,238 C140.024,237.25333 140.303997,236.600003 140.864,236.04 C141.424003,235.479997 142.07733,235.2 142.824,235.2 Z M220.594,235.2 C221.34067,235.2 221.993997,235.479997 222.554,236.04 C223.114003,236.600003 223.394,237.25333 223.394,238 L223.394,261.31 C223.394,262.150004 223.137336,262.826664 222.624,263.34 L210.934,274.96 C210.373997,275.520003 209.72067,275.8 208.974,275.8 L201.204,275.8 C200.45733,275.8 199.804003,275.520003 199.244,274.96 L187.554,263.34 C186.993997,262.779997 186.714,262.103337 186.714,261.31 L186.714,238 C186.714,237.25333 186.993997,236.600003 187.554,236.04 C188.114003,235.479997 188.76733,235.2 189.514,235.2 C190.26067,235.2 190.913997,235.479997 191.474,236.04 C192.034003,236.600003 192.314,237.25333 192.314,238 L192.314,260.19 L202.394,270.2 L207.784,270.2 L217.794,260.19 L217.794,238 C217.794,237.25333 218.073997,236.600003 218.634,236.04 C219.194003,235.479997 219.84733,235.2 220.594,235.2 Z M227.244,261.31 C227.244,260.516663 227.523997,259.851669 228.084,259.315 C228.644003,258.778331 229.29733,258.51 230.044,258.51 C230.837337,258.51 231.513997,258.789997 232.074,259.35 L242.924,270.2 L248.314,270.2 L256.084,262.43 L229.064,252.28 C227.850661,251.813331 227.244,250.926673 227.244,249.62 C227.244,248.87333 227.523997,248.220003 228.084,247.66 L239.774,236.04 C240.334003,235.479997 240.98733,235.2 241.734,235.2 L249.504,235.2 C250.25067,235.2 250.903997,235.479997 251.464,236.04 L263.154,247.66 C263.667336,248.173336 263.924,248.849996 263.924,249.69 C263.924,250.483337 263.644003,251.148331 263.084,251.685 C262.523997,252.221669 261.87067,252.49 261.124,252.49 C260.37733,252.49 259.724003,252.210003 259.164,251.65 L248.314,240.8 L242.924,240.8 L235.084,248.57 L262.104,258.72 C263.317339,259.140002 263.924,260.003327 263.924,261.31 C263.924,262.150004 263.667336,262.826664 263.154,263.34 L251.464,274.96 C250.903997,275.520003 250.25067,275.8 249.504,275.8 L241.734,275.8 C240.98733,275.8 240.334003,275.520003 239.774,274.96 L228.084,263.34 C227.523997,262.779997 227.244,262.103337 227.244,261.31 Z M271.764,235.2 C272.557337,235.2 273.222331,235.479997 273.759,236.04 C274.295669,236.600003 274.564,237.25333 274.564,238 L274.564,273 C274.564,273.74667 274.295669,274.399997 273.759,274.96 C273.222331,275.520003 272.557337,275.8 271.764,275.8 C270.970663,275.8 270.305669,275.520003 269.769,274.96 C269.232331,274.399997 268.964,273.74667 268.964,273 L268.964,238 C268.964,237.25333 269.232331,236.600003 269.769,236.04 C270.305669,235.479997 270.970663,235.2 271.764,235.2 Z M271.764,211.89 C272.557337,211.89 273.222331,212.158331 273.759,212.695 C274.295669,213.231669 274.564,213.896663 274.564,214.69 L274.564,218.19 C274.564,218.983337 274.295669,219.648331 273.759,220.185 C273.222331,220.721669 272.557337,220.99 271.764,220.99 C270.970663,220.99 270.305669,220.721669 269.769,220.185 C269.232331,219.648331 268.964,218.983337 268.964,218.19 L268.964,214.69 C268.964,213.896663 269.232331,213.231669 269.769,212.695 C270.305669,212.158331 270.970663,211.89 271.764,211.89 Z M313.484,258.51 C314.23067,258.51 314.883997,258.778331 315.444,259.315 C316.004003,259.851669 316.284,260.516663 316.284,261.31 C316.284,262.150004 316.027336,262.826664 315.514,263.34 L303.824,274.96 C303.263997,275.520003 302.61067,275.8 301.864,275.8 L294.094,275.8 C293.34733,275.8 292.694003,275.520003 292.134,274.96 L280.444,263.34 C279.883997,262.779997 279.604,262.103337 279.604,261.31 L279.604,249.69 C279.604,248.896663 279.883997,248.220003 280.444,247.66 L292.134,236.04 C292.694003,235.479997 293.34733,235.2 294.094,235.2 L301.864,235.2 C302.61067,235.2 303.263997,235.479997 303.824,236.04 L315.514,247.66 C316.027336,248.173336 316.284,248.849996 316.284,249.69 C316.284,250.483337 316.004003,251.148331 315.444,251.685 C314.883997,252.221669 314.23067,252.49 313.484,252.49 C312.73733,252.49 312.084003,252.210003 311.524,251.65 L300.674,240.8 L295.284,240.8 L285.204,250.81 L285.204,260.19 L295.284,270.2 L300.674,270.2 L311.524,259.35 C312.084003,258.789997 312.73733,258.51 313.484,258.51 Z" id="music" fill="#FCF8E7"></path>
        </g>
    </g>
</svg>