
<svg width="454px" height="395px" viewBox="0 0 454 395" version="1.1" xmlns="http://www.w3.org/2000/svg" xmlns:xlink="http://www.w3.org/1999/xlink">
    <defs></defs>
    <g id="Page-1" stroke="none" stroke-width="1" fill="none" fill-rule="evenodd">
        <g id="Group-21" transform="translate(1.000000, 1.000000)">
            <g id="Group-18">
                <g id="Group-3-Copy">
                    <polygon id="Triangle-2" stroke="#BAB4AF" fill="#000000" points="226 47 360 295 92 295"></polygon>
                    <g id="Group-22" fill="#000000" stroke="#BAB4AF">
                        <polygon id="Triangle-2-Copy" transform="translate(226.000000, 197.000000) scale(1, -1) translate(-226.000000, -197.000000) " points="226 0 452 394 0 394"></polygon>
                    </g>
                    <path d="M143.8,240.31 C144.54667,240.31 145.199997,240.589997 145.76,241.15 C146.320003,241.710003 146.6,242.36333 146.6,243.11 L146.6,246.75 L150.94,241.36 C151.54667,240.659997 152.269996,240.31 153.11,240.31 C154.043338,240.31 154.789997,240.659997 155.35,241.36 L162.42,250.32 L169.56,241.36 C170.16667,240.659997 170.889996,240.31 171.73,240.31 C172.663338,240.31 173.409997,240.659997 173.97,241.36 L183.28,253.05 C183.700002,253.563336 183.91,254.146663 183.91,254.8 L183.91,278.11 C183.91,278.85667 183.641669,279.509997 183.105,280.07 C182.568331,280.630003 181.903337,280.91 181.11,280.91 C180.316663,280.91 179.651669,280.630003 179.115,280.07 C178.578331,279.509997 178.31,278.85667 178.31,278.11 L178.31,255.78 L171.8,247.59 L165.22,255.78 L165.22,278.11 C165.22,278.85667 164.940003,279.509997 164.38,280.07 C163.819997,280.630003 163.16667,280.91 162.42,280.91 C161.67333,280.91 161.020003,280.630003 160.46,280.07 C159.899997,279.509997 159.62,278.85667 159.62,278.11 L159.62,255.78 L153.11,247.59 L146.6,255.78 L146.6,278.11 C146.6,278.85667 146.320003,279.509997 145.76,280.07 C145.199997,280.630003 144.54667,280.91 143.8,280.91 C143.05333,280.91 142.400003,280.630003 141.84,280.07 C141.279997,279.509997 141,278.85667 141,278.11 L141,243.11 C141,242.36333 141.279997,241.710003 141.84,241.15 C142.400003,240.589997 143.05333,240.31 143.8,240.31 Z M221.57,240.31 C222.31667,240.31 222.969997,240.589997 223.53,241.15 C224.090003,241.710003 224.37,242.36333 224.37,243.11 L224.37,266.42 C224.37,267.260004 224.113336,267.936664 223.6,268.45 L211.91,280.07 C211.349997,280.630003 210.69667,280.91 209.95,280.91 L202.18,280.91 C201.43333,280.91 200.780003,280.630003 200.22,280.07 L188.53,268.45 C187.969997,267.889997 187.69,267.213337 187.69,266.42 L187.69,243.11 C187.69,242.36333 187.969997,241.710003 188.53,241.15 C189.090003,240.589997 189.74333,240.31 190.49,240.31 C191.23667,240.31 191.889997,240.589997 192.45,241.15 C193.010003,241.710003 193.29,242.36333 193.29,243.11 L193.29,265.3 L203.37,275.31 L208.76,275.31 L218.77,265.3 L218.77,243.11 C218.77,242.36333 219.049997,241.710003 219.61,241.15 C220.170003,240.589997 220.82333,240.31 221.57,240.31 Z M228.22,266.42 C228.22,265.626663 228.499997,264.961669 229.06,264.425 C229.620003,263.888331 230.27333,263.62 231.02,263.62 C231.813337,263.62 232.489997,263.899997 233.05,264.46 L243.9,275.31 L249.29,275.31 L257.06,267.54 L230.04,257.39 C228.826661,256.923331 228.22,256.036673 228.22,254.73 C228.22,253.98333 228.499997,253.330003 229.06,252.77 L240.75,241.15 C241.310003,240.589997 241.96333,240.31 242.71,240.31 L250.48,240.31 C251.22667,240.31 251.879997,240.589997 252.44,241.15 L264.13,252.77 C264.643336,253.283336 264.9,253.959996 264.9,254.8 C264.9,255.593337 264.620003,256.258331 264.06,256.795 C263.499997,257.331669 262.84667,257.6 262.1,257.6 C261.35333,257.6 260.700003,257.320003 260.14,256.76 L249.29,245.91 L243.9,245.91 L236.06,253.68 L263.08,263.83 C264.293339,264.250002 264.9,265.113327 264.9,266.42 C264.9,267.260004 264.643336,267.936664 264.13,268.45 L252.44,280.07 C251.879997,280.630003 251.22667,280.91 250.48,280.91 L242.71,280.91 C241.96333,280.91 241.310003,280.630003 240.75,280.07 L229.06,268.45 C228.499997,267.889997 228.22,267.213337 228.22,266.42 Z M272.74,240.31 C273.533337,240.31 274.198331,240.589997 274.735,241.15 C275.271669,241.710003 275.54,242.36333 275.54,243.11 L275.54,278.11 C275.54,278.85667 275.271669,279.509997 274.735,280.07 C274.198331,280.630003 273.533337,280.91 272.74,280.91 C271.946663,280.91 271.281669,280.630003 270.745,280.07 C270.208331,279.509997 269.94,278.85667 269.94,278.11 L269.94,243.11 C269.94,242.36333 270.208331,241.710003 270.745,241.15 C271.281669,240.589997 271.946663,240.31 272.74,240.31 Z M272.74,217 C273.533337,217 274.198331,217.268331 274.735,217.805 C275.271669,218.341669 275.54,219.006663 275.54,219.8 L275.54,223.3 C275.54,224.093337 275.271669,224.758331 274.735,225.295 C274.198331,225.831669 273.533337,226.1 272.74,226.1 C271.946663,226.1 271.281669,225.831669 270.745,225.295 C270.208331,224.758331 269.94,224.093337 269.94,223.3 L269.94,219.8 C269.94,219.006663 270.208331,218.341669 270.745,217.805 C271.281669,217.268331 271.946663,217 272.74,217 Z M314.46,263.62 C315.20667,263.62 315.859997,263.888331 316.42,264.425 C316.980003,264.961669 317.26,265.626663 317.26,266.42 C317.26,267.260004 317.003336,267.936664 316.49,268.45 L304.8,280.07 C304.239997,280.630003 303.58667,280.91 302.84,280.91 L295.07,280.91 C294.32333,280.91 293.670003,280.630003 293.11,280.07 L281.42,268.45 C280.859997,267.889997 280.58,267.213337 280.58,266.42 L280.58,254.8 C280.58,254.006663 280.859997,253.330003 281.42,252.77 L293.11,241.15 C293.670003,240.589997 294.32333,240.31 295.07,240.31 L302.84,240.31 C303.58667,240.31 304.239997,240.589997 304.8,241.15 L316.49,252.77 C317.003336,253.283336 317.26,253.959996 317.26,254.8 C317.26,255.593337 316.980003,256.258331 316.42,256.795 C315.859997,257.331669 315.20667,257.6 314.46,257.6 C313.71333,257.6 313.060003,257.320003 312.5,256.76 L301.65,245.91 L296.26,245.91 L286.18,255.92 L286.18,265.3 L296.26,275.31 L301.65,275.31 L312.5,264.46 C313.060003,263.899997 313.71333,263.62 314.46,263.62 Z" id="music" fill="#FCF8E7"></path>
                </g>
            </g>
        </g>
    </g>
</svg>